<svg t="1569575210160" class="icon" viewBox="0 0 1116 1024" version="1.1" xmlns="http://www.w3.org/2000/svg" p-id="3305" width="128" height="128"><path d="M156.708106 930.94293h803.26863L558.342421 194.39622l-401.634315 736.54671zM582.909487 44.946565l511.255544 937.736096a27.917121 27.917121 0 0 1-24.47401 41.317339H46.99382a27.917121 27.917121 0 0 1-24.474009-41.317339L533.868411 44.946565a27.917121 27.917121 0 0 1 48.948019 0z m-22.333696 327.560887h0.279171a46.528535 46.528535 0 0 1 46.249364 46.528535v239.994184a46.528535 46.528535 0 0 1-93.05707 0V418.756816a46.249364 46.249364 0 0 1 46.528535-46.249364zM558.342421 837.513631a46.528535 46.528535 0 0 1-46.528535-46.528535c0-25.683751 20.844784-46.06325 46.528535-46.063249s46.528535 20.379498 46.528535 46.063249A46.528535 46.528535 0 0 1 558.342421 837.513631z" p-id="3306" fill="#ffffff"></path></svg>