<svg t="1588903360977" class="icon" viewBox="0 0 1024 1024" version="1.1" xmlns="http://www.w3.org/2000/svg" p-id="1614" width="128" height="128"><path d="M898.9 354.2V314H738.3c26.7-7.8 54.1-13.2 81.8-15.9 7-1.2 11.7-7.9 10.4-15-1.1-5.9-6.1-10.4-12.1-10.6-19.8 1.9-39.8-0.1-58.8-5.9 20.4-5 41.1-8.5 62-10.6 6.8-0.5 12-6.4 11.5-13.2-0.5-6.8-6.4-12-13.2-11.5-20.4 1.9-41-0.4-60.5-6.6 19.5-4.8 39.3-8.2 59.2-10.4l5.1-0.4c6.7-0.9 11.4-7.1 10.4-13.9-0.8-5.5-5.1-9.8-10.6-10.5h-2.7l-4 0.4c-19.2 1.2-38.4-1.3-56.7-7.2 21.2-5.2 42.8-8.9 64.5-11h0.6c6.8 0 12.2-5.6 12.2-12.3 0-6.8-5.6-12.2-12.3-12.2-0.7 0-1.5 0.1-2.2 0.2-20.6 1.9-41.4-0.4-61.1-6.8 17.9-4.4 36-7.8 54.4-9.9l10.6-0.6c6.8-1.2 11.3-7.6 10.2-14.4-1.1-6.3-6.8-10.7-13.1-10.3l-9.3 1.1c-17.6 0.4-35.2-2.1-52-7.6 21.4-5.3 43.2-9.1 65.1-11.2 6.5-1.7 10.4-8.5 8.7-15-1.4-5.2-6-8.9-11.4-9.1-34.8 3.3-69 10.6-102.2 21.6-6.4 2.2-9.8 9.2-7.6 15.6 1.3 3.6 4.1 6.5 7.8 7.7 1 1 2.1 1.9 3.4 2.5 6.7 3.2 13.5 6.1 20.5 8.7-8.6 2.3-17.1 4.8-25.6 7.6-6.3 2.4-9.6 9.4-7.2 15.8 1.4 3.6 4.3 6.4 8 7.5l2.7 1.7c6.9 3.4 13.9 6.4 21.1 9.1-8.7 2.5-17.4 5.2-26 8-6.4 2.3-9.6 9.4-7.3 15.7 1.3 3.6 4.3 6.4 8 7.5 0.9 0.8 1.9 1.4 3 1.9 6.8 3.3 13.8 6.3 20.9 8.9-8.7 2.4-17.4 5-26 7.8-6.4 2.3-9.6 9.4-7.3 15.7 1.4 3.9 4.7 6.8 8.8 7.7l2.1 1.3c7.1 3.6 14.4 6.7 21.8 9.5-9 2.4-18 5.1-26.9 8-6.3 2.4-9.5 9.5-7 15.9 1.7 4.5 5.9 7.5 10.6 7.8h0.2c7.6 3.7 15.5 6.9 23.5 9.7-9.6 2.5-19.1 5.4-28.6 8.5-6.3 2.2-9.7 9.1-7.6 15.4 0.4 1.1 0.9 2 1.5 3H568.9c26.7-7.9 54.1-13.2 81.8-15.9 7-1.2 11.7-7.9 10.4-15-1.1-5.9-6.1-10.4-12.1-10.6-19.8 1.9-39.8-0.1-58.8-5.9 20.4-4.9 41.1-8.4 62-10.4 6.8-0.5 12-6.4 11.5-13.2-0.5-6.8-6.4-12-13.2-11.5-20.4 1.9-41-0.4-60.5-6.6 19.5-4.8 39.3-8.2 59.2-10.4l5.1-0.4c6.7-0.9 11.4-7.1 10.4-13.9-0.8-5.5-5.1-9.8-10.6-10.5h-2.7l-4 0.4c-19.2 1.2-38.4-1.3-56.7-7.2 21.1-5.2 42.6-8.8 64.3-10.8h0.6c6.8 0 12.2-5.6 12.2-12.3 0-6.8-5.6-12.2-12.3-12.2-0.7 0-1.5 0.1-2.2 0.2-20.6 1.9-41.4-0.4-61.1-6.8 17.9-4.4 36-7.8 54.4-9.9l10.6-0.6c6.8-1.2 11.3-7.6 10.2-14.4-1.1-6.3-6.8-10.7-13.1-10.3l-9.3 1.1c-17.6 0.4-35.2-2.1-52-7.6 21.2-5.2 43-8.9 65-11 6.7-1.2 11.1-7.6 9.8-14.3-1.1-5.9-6.3-10.2-12.3-10-34.8 3.3-69 10.6-102.2 21.6-6.4 2.2-9.8 9.2-7.6 15.6 1.3 3.6 4.1 6.5 7.8 7.7 1 1 2.1 1.9 3.4 2.5 6.7 3.2 13.5 6.1 20.5 8.7-8.6 2.3-17.1 4.8-25.6 7.6-6.3 2.4-9.6 9.4-7.2 15.8 1.4 3.6 4.3 6.4 8 7.5l2.7 1.7c6.9 3.4 13.9 6.4 21.1 9.1-8.7 2.5-17.4 5.2-26 8-6.4 2.3-9.6 9.4-7.3 15.7 1.3 3.6 4.3 6.4 8 7.5 0.9 0.8 1.9 1.4 3 1.9 6.8 3.3 13.8 6.3 20.9 8.9-8.7 2.4-17.4 5-26 7.8-6.4 2.3-9.6 9.4-7.3 15.7 1.4 3.9 4.7 6.8 8.8 7.7l2.1 1.3c7.1 3.6 14.4 6.7 21.8 9.5-9 2.4-18 5.1-26.9 8-6.3 2.4-9.5 9.5-7.1 15.8 1.7 4.4 5.8 7.5 10.5 7.9h0.2c7.6 3.7 15.5 6.9 23.5 9.7-9.6 2.5-19.1 5.4-28.6 8.5-6.3 2.1-9.8 8.9-7.7 15.2 0.4 1.1 0.9 2.2 1.6 3.2H399.5c26.7-7.8 54.1-13.2 81.8-15.9 7-1.2 11.7-7.9 10.4-15-1.1-5.9-6.1-10.4-12.1-10.6-19.8 1.9-39.8-0.1-58.8-5.9 20.3-4.9 41-8.4 61.8-10.4 6.8-0.5 12-6.4 11.5-13.2-0.5-6.8-6.4-12-13.2-11.5-20.4 1.9-41-0.4-60.5-6.6 19.5-4.8 39.3-8.2 59.2-10.4l5.1-0.4c6.7-0.9 11.4-7.1 10.4-13.9-0.8-5.5-5.1-9.8-10.6-10.5h-2.7l-4 0.4c-19.2 1.2-38.4-1.3-56.7-7.2 21.2-5.2 42.8-8.9 64.5-11h0.6c6.7-1.3 11-7.7 9.8-14.3-1.1-5.8-6.2-10-12.1-10-20.6 1.9-41.4-0.4-61.1-6.8 17.9-4.4 36-7.8 54.4-9.9l10.6-0.6c6.8-1.2 11.3-7.6 10.2-14.4-1.1-6.3-6.8-10.7-13.1-10.3l-9.3 1.1c-17.6 0.4-35.2-2.1-52-7.6 21.4-5.3 43.2-9.1 65.1-11.2 6.5-1.7 10.5-8.4 8.7-15-1.4-5.2-5.9-8.9-11.3-9.1-34.8 3.3-69 10.6-102.2 21.6-6.4 2.2-9.8 9.2-7.6 15.6 1.3 3.6 4.1 6.5 7.8 7.7 1 1 2.1 1.9 3.4 2.5 6.7 3.2 13.5 6.1 20.5 8.7-8.6 2.3-17.1 4.8-25.4 7.6-6.3 2.4-9.6 9.4-7.2 15.8 1.4 3.6 4.3 6.4 8 7.5l2.7 1.7c6.9 3.4 13.9 6.4 21.1 9.1-8.9 2.5-17.7 5.2-26.4 8-6.4 2.3-9.6 9.4-7.3 15.7 1.3 3.6 4.3 6.4 8 7.5 0.9 0.8 1.9 1.4 3 1.9 6.8 3.3 13.8 6.3 20.9 8.9-8.7 2.4-17.4 5-26 7.8-6.4 2.3-9.6 9.4-7.3 15.7 1.4 3.9 4.7 6.8 8.8 7.7l2.1 1.3c7.2 3.6 14.5 6.8 22 9.5-9 2.4-18 5.1-26.9 8-6.3 2.4-9.5 9.5-7.1 15.8 1.7 4.4 5.8 7.5 10.5 7.9h0.2c7.6 3.7 15.5 7 23.5 9.7-9.6 2.5-19.1 5.4-28.6 8.5-6.3 2.2-9.7 9.1-7.6 15.4 0.4 1.1 0.9 2 1.5 3H230.1c26.7-7.8 54.1-13.2 81.8-15.9 6.9-1.7 11.2-8.6 9.5-15.6-1.3-5.3-5.8-9.3-11.2-9.8-19.8 1.9-39.8-0.1-58.8-5.9 20.3-5 40.9-8.5 61.8-10.6 6.8-0.5 12-6.4 11.5-13.2-0.5-6.8-6.4-12-13.2-11.5-20.4 1.9-41-0.2-60.5-6.3 19.5-4.8 39.3-8.2 59.2-10.4l5.1-0.4c6.7-0.9 11.4-7.1 10.4-13.9-0.8-5.5-5.1-9.8-10.6-10.5h-2.7l-4 0.4c-19.2 1.2-38.4-1.3-56.7-7.2 21.2-5.2 42.8-8.9 64.5-11h0.6c6.8 0 12.2-5.6 12.2-12.3 0-6.8-5.6-12.2-12.3-12.2-0.7 0-1.5 0.1-2.2 0.2-20.6 1.9-41.4-0.4-61.1-6.8 17.9-4.4 36-7.8 54.4-9.9l10.6-0.6c6.8-1.2 11.3-7.6 10.2-14.4-1.1-6.3-6.8-10.7-13.1-10.3l-9.3 1.1c-17.6 0.4-35.2-2.1-52-7.6 21.4-5.3 43.2-9.1 65.1-11.2 6.7-1.2 11.1-7.6 9.8-14.3-1.1-5.9-6.3-10.2-12.3-10-34.8 3.3-69 10.6-102.2 21.6-6.4 2.2-9.8 9.2-7.6 15.6 1.3 3.6 4.1 6.5 7.8 7.7 1 1 2.1 1.9 3.4 2.5 6.7 3.2 13.5 6.1 20.5 8.7-8.6 2.3-17.1 4.8-25.6 7.6-6.3 2.4-9.6 9.4-7.2 15.8 1.4 3.6 4.3 6.4 8 7.5l2.7 1.7c6.9 3.4 13.9 6.4 21.1 9.1-8.7 2.5-17.5 5.2-26.2 8-6.4 2.3-9.6 9.4-7.3 15.7 1.3 3.6 4.3 6.4 8 7.5 0.9 0.9 1.9 1.6 3 2.1 6.9 3.3 13.9 6.3 21.1 8.9-8.7 2.4-17.4 5-26 7.8-6.4 2.3-9.6 9.4-7.3 15.7 1.4 3.9 4.7 6.8 8.8 7.7l2.1 1.3c7.1 3.5 14.4 6.6 21.8 9.3-9.2 2.4-18.1 5.1-26.9 8-6.3 2.4-9.5 9.5-7.1 15.8 1.7 4.4 5.8 7.5 10.5 7.9h0.2c7.6 3.7 15.5 6.9 23.5 9.7-9.6 2.5-19.1 5.4-28.6 8.5-6.3 2.2-9.7 9.1-7.6 15.4 0.4 1.1 0.9 2 1.5 3h-89.7V354h62.2v524.5h-22v40.2h-40.2v40.2h787.4v-40.2h-40.2v-40.2h-20.5V354.2h60.7zM364 825.9l112.5-185.3H351.3l295-224.2-112.5 185.3h125.4l-295 224.2h-0.2z" p-id="1615" fill="#ffffff"></path></svg>