<svg t="1569575095840" class="icon" viewBox="0 0 1024 1024" version="1.1" xmlns="http://www.w3.org/2000/svg" p-id="2830" width="128" height="128"><path d="M512 966.7c-61.4 0-120.9-12-177-35.7-54.1-22.9-102.8-55.7-144.5-97.4-41.7-41.9-74.5-90.5-97.4-144.6-23.7-56.1-35.7-115.6-35.7-177 0-61.4 12-120.9 35.7-177 22.9-54.1 55.7-102.8 97.4-144.5 41.8-41.8 90.4-74.5 144.5-97.4 56.1-23.7 115.6-35.7 177-35.7 61.4 0 120.9 12 177 35.7 54.1 22.9 102.8 55.7 144.5 97.4 41.8 41.8 74.5 90.4 97.4 144.5 23.7 56.1 35.7 115.6 35.7 177 0 61.4-12 120.9-35.7 177-22.9 54.1-55.7 102.8-97.4 144.5-41.8 41.8-90.4 74.5-144.5 97.4-56.1 23.7-115.6 35.8-177 35.8z m0-881.4C276.7 85.3 85.3 276.7 85.3 512S276.7 938.7 512 938.7 938.7 747.3 938.7 512 747.3 85.3 512 85.3z" p-id="2831" fill="#ffffff"></path><path d="M419.5 327h46.2v46.3h-46.2V327z m69.4 0h46.2v46.3h-46.2V327z m69.3 0h46.3v46.3h-46.3V327z m0 0M431.1 407.9c0 6.4 5.2 11.6 11.6 11.6 6.4 0 11.6-5.2 11.6-11.6 0-6.4-5.2-11.6-11.6-11.6-6.5 0.1-11.6 5.3-11.6 11.6z m0 0M465.8 407.9c0 6.4 5.2 11.6 11.6 11.6 6.4 0 11.6-5.2 11.6-11.6 0-6.4-5.2-11.6-11.6-11.6-6.5 0.1-11.6 5.3-11.6 11.6z m0 0M500.4 407.9c0 6.4 5.2 11.6 11.6 11.6 6.4 0 11.6-5.2 11.6-11.6 0-6.4-5.2-11.6-11.6-11.6-6.4 0.1-11.6 5.3-11.6 11.6z m0 0M535.1 407.9c0 6.4 5.2 11.6 11.6 11.6 6.4 0 11.6-5.2 11.6-11.6 0-6.4-5.2-11.6-11.6-11.6-6.4 0.1-11.6 5.3-11.6 11.6z m0 0M569.8 407.9c0 6.4 5.2 11.6 11.6 11.6s11.6-5.2 11.6-11.6c0-6.4-5.2-11.6-11.6-11.6s-11.6 5.3-11.6 11.6z m0 0" p-id="2832" fill="#ffffff"></path><path d="M350.1 234.5v555h323.7v-555H350.1z m300.6 531.9H373.3V465.8h277.5v300.6zM373.3 442.6V280.8h277.5v161.9H373.3z m0 0" p-id="2833" fill="#ffffff"></path><path d="M442.6 633.4H512l-34.7 86.7 104.1-121.4H512l34.7-86.7-104.1 121.4z m-46.2-144.5h23.1v46.2h-23.1v-46.2z m0 0" p-id="2834" fill="#ffffff"></path></svg>