<svg t="1587966511873" class="icon" viewBox="0 0 1024 1024" version="1.1" xmlns="http://www.w3.org/2000/svg" p-id="3305" width="128" height="128"><path d="M792.29946 14.461937H231.699324C111.373334 14.461937 13.828847 112.006424 13.828847 232.332414v560.598919c0 120.327207 97.544487 217.871693 217.870477 217.871694h560.601352c120.32599 0 217.870477-97.544487 217.870477-217.871694v-560.597703C1010.169937 112.006424 912.62545 14.461937 792.29946 14.461937z m156.15851 778.488857c0 85.835062-70.199385 155.146539-156.03323 155.146539H232.185849c-85.835062 0-155.650092-69.310261-155.650093-155.146539V232.713119c0-85.804654 69.813814-155.544273 155.650093-155.544273h560.237674c85.833845 0 156.03323 69.739619 156.03323 155.544273v560.237675z" p-id="3306" fill="#ffffff"></path><path d="M209.618416 828.846562l62.265388 18.396703c23.583052-99.999002 45.284472-191.043524 65.098177-273.122617a1423.722339 1423.722339 0 0 1-58.02168-21.227059c-19.811272 100.0063-42.929694 191.989813-69.341885 275.952973zM382.974346 269.156227c-45.284472-40.563969-85.854523-75.002597-121.702854-103.306152l-36.086729 38.917085c26.413408 22.641628 65.098177 58.728356 116.042143 108.258969 11.792134-12.735992 25.705515-27.357265 41.74744-43.869902zM184.853109 390.859081c25.942696 19.811272 65.566456 53.543223 118.872499 101.182473 9.906852-10.845844 23.581836-26.179876 41.03833-45.992365-47.645331-39.150616-89.154374-71.228384-124.53321-96.230871l-35.377619 41.040763zM693.599477 697.945964l52.360969-26.178659c-31.135127-65.566456-65.804853-132.549915-104.014044-200.951593l-50.945183 24.056198c21.696554 38.684769 42.454116 78.540845 62.264172 119.580391a11089.894822 11089.894822 0 0 0-179.015425 9.906853c44.340615-71.228384 90.331763-155.428723 137.977095-252.604668l-57.313787-22.642844c-35.853197 90.57016-77.832952 173.35593-125.946563 248.35731-10.851926 16.041925-23.589134 26.888985-38.209192 32.550913l14.859671 56.603461c18.866199-5.183917 44.101001-9.198959 75.709273-12.028099 58.960672-4.244925 124.057632-8.48985 195.289665-12.735991a2618.114119 2618.114119 0 0 0 16.983349 36.086728z" p-id="3307" fill="#ffffff"></path><path d="M545.715531 165.850075l-55.898001-17.688809c-32.078984 93.399299-76.655563 178.308748-133.730953 254.72713 15.566347 7.550858 31.60219 18.164387 48.114827 31.840588 28.303555-41.03833 54.71453-84.909449 79.247522-131.608491h302.841958c-3.307149 202.366162-6.368604 335.158123-9.19896 398.36372-0.945074 32.54848-7.552074 54.00907-19.812488 64.390284-11.797 11.320206-34.201447 16.980917-67.22064 16.980916-33.493554 0-77.123843-3.06632-130.900597-9.198959 5.18635 22.641628 9.198959 43.395541 12.030531 62.266605 42.454116 2.354778 82.547373 3.537032 120.287069 3.537032 51.885391 0 87.741021-9.198959 107.551076-27.595662 20.753913-17.92599 32.310083-51.890256 34.672159-101.890366 2.829139-57.076606 6.599703-209.913371 11.320206-458.509078H508.922125c12.735992-27.356049 24.996406-55.895568 36.793406-85.61491z" p-id="3308" fill="#ffffff"></path></svg>