<svg t="1569575714170" class="icon" viewBox="0 0 1024 1024" version="1.1" xmlns="http://www.w3.org/2000/svg" p-id="5378" width="128" height="128"><path d="M481.28 568.32c-128 0-230.4-102.4-230.4-230.4s102.4-230.4 230.4-230.4 230.4 102.4 230.4 230.4c0 122.88-102.4 230.4-230.4 230.4z m0-409.6c-97.28 0-179.2 81.92-179.2 179.2s81.92 179.2 179.2 179.2 179.2-81.92 179.2-179.2c0-102.4-81.92-179.2-179.2-179.2zM486.4 875.52H204.8l20.48-184.32 112.64-46.08-20.48-46.08-143.36 56.32-30.72 276.48h353.28c-5.12-25.6-5.12-40.96-10.24-56.32zM604.16 655.36H768v40.96h-163.84zM604.16 752.64h194.56v40.96h-194.56zM604.16 849.92h276.48v40.96h-276.48z" p-id="5379"></path></svg>