<svg t="1569575445082" class="icon" viewBox="0 0 1024 1024" version="1.1" xmlns="http://www.w3.org/2000/svg" p-id="3650" width="128" height="128"><path d="M634.331 437.029a36.571 36.571 0 0 1-36.571-36.572 86.857 86.857 0 1 0-173.714 0 36.571 36.571 0 1 1-73.143 0 160 160 0 1 1 320 0 36.571 36.571 0 0 1-36.572 36.572z" p-id="3651" fill="#ffffff"></path><path d="M746.24 437.029a36.571 36.571 0 0 1-36.571-36.572 198.949 198.949 0 1 0-397.715 0 36.571 36.571 0 1 1-73.143 0 272.091 272.091 0 1 1 544 0 36.571 36.571 0 0 1-36.571 36.572z" p-id="3652" fill="#ffffff"></path><path d="M832 563.017H548.571V437.03a36.571 36.571 0 1 0-73.142 0v125.988H192a45.714 45.714 0 0 0-45.714 45.714v204.983A45.714 45.714 0 0 0 192 859.43h640a45.714 45.714 0 0 0 45.714-45.715V608.731A45.714 45.714 0 0 0 832 563.017zM259.109 747.886a36.571 36.571 0 1 1 36.571-36.572 36.571 36.571 0 0 1-36.571 36.572z m110.811 0a36.571 36.571 0 1 1 36.571-36.572 36.571 36.571 0 0 1-36.571 36.572z" p-id="3653" fill="#ffffff"></path></svg>