<svg t="1569574380080" class="icon" viewBox="0 0 1112 1024" version="1.1" xmlns="http://www.w3.org/2000/svg" p-id="20479" width="128" height="128"><path d="M336.829738 292.067921c0 104.20927 55.570445 200.54704 145.916476 252.710418 90.228545 52.163378 201.486921 52.163378 291.715466 0C864.690225 492.614961 920.378155 396.277191 920.378155 292.067921c0-161.072051-130.643414-291.715466-291.715466-291.715466-161.189536 0-291.832951 130.643414-291.832951 291.715466z m0 0" fill="#E9E9EB" p-id="20480"></path><path d="M288.190913 328.605782h109.378614v340.354291h-109.378614V328.605782z m218.874713-60.857274h109.378614v401.211565h-109.378614v-401.211565z m218.757229-133.698026h109.378614v534.909591h-109.378614v-534.909591z m0 0" fill="#FFFFFF" p-id="20481"></path><path d="M397.569527 377.244608h109.378614v291.715465h-109.378614V377.244608z m218.874713-60.857274h109.378615v352.572739h-109.378615v-352.572739z m0 0" fill="#A3B4FF" p-id="20482"></path><path d="M318.61955 596.001836h-103.386874V571.682423h91.168425l48.638826-60.739789h85.059201l36.420376 48.638825h86.351538l97.27765-97.27765h94.810464l36.420376-60.739789h92.343277v24.319413H805.947682l-36.420376 60.739789h-99.627352l-97.27765 97.27765h-108.203763l-36.420377-48.638825h-60.739789l-48.638825 60.739789z m0 0" fill="#2A3182" p-id="20483"></path><path d="M421.88894 121.949518h24.319412v72.958238h-24.319412z" fill="#BCC0C4" p-id="20484"></path><path d="M397.569527 146.268931h72.958238v24.319412h-72.958238v-24.319412z m-145.79899 0H276.08995v72.958237h-24.319413v-72.958237z m0 0" fill="#BCC0C4" p-id="20485"></path><path d="M227.451124 170.470858h72.958238v24.319413h-72.958238v-24.319413zM349.048187 12.453419h24.319413v72.958238h-24.319413V12.453419z m0 0" fill="#BCBDC4" p-id="20486"></path><path d="M324.728775 36.772832h72.958237v24.319412h-72.958237z" fill="#BCC0C4" p-id="20487"></path><path d="M215.232676 656.741625H276.08995v24.319412h-60.739789v-24.319412z m-48.521341 0h24.319413v24.319412h-24.319413v-24.319412z m753.66682 0h24.319413v24.319412h-24.319413v-24.319412z m-72.958238 0h48.638826v24.319412h-48.638826v-24.319412zM628.545204 474.404773h-24.319412v-194.555301h-85.059202v97.277651h-24.319412V255.647545H628.545204V474.404773z m0 206.656264H507.065626v-24.319412h97.277651V571.682423H628.545204v109.378614z m0 0" fill="#2A3182" p-id="20488"></path><path d="M738.041303 681.061037H616.44424v-24.319412h97.277651V510.942634h24.319412v170.118403z m0-243.07664h-24.319412v-109.378615h-97.277651v-24.319412h121.597063V437.984397zM519.16659 681.061037H397.569527v-24.319412h97.277651V608.102799h24.319412v72.958238z m0-145.79899h-24.319412V389.345571h-97.277651v-24.319412h121.597063V535.262047z m0 0" fill="#2A3182" p-id="20489"></path><path d="M409.787976 681.061037H276.08995v-60.739789h24.319412v36.420377h85.059202v-97.277651h24.319412v121.597063zM300.409362 547.363011H276.08995v-230.975677h133.698026V486.623222h-24.319412V340.706746h-85.059202V547.363011z m547.010555 133.698026h-121.597062v-24.319412h97.27765V450.08536h24.319412v230.975677z m0-303.816429h-24.319412v-230.975677h-85.059202v170.235888h-24.319412v-194.555301h133.698026v255.29509z m0 0" fill="#2A3182" p-id="20490"></path></svg>