<svg t="1584605943707" class="icon" viewBox="0 0 1024 1024" version="1.1" xmlns="http://www.w3.org/2000/svg" p-id="2410" width="128" height="128"><path d="M812.45184835 445.11344909l-354.22544861 354.22544862-5.45059204 43.60102844c0 5.45059204-2.72529602 19.07336426 8.17588805 29.97084046 8.17588807 8.17588807 16.34806823 8.17588807 21.79866029 8.17588805h8.17588805l43.59732056-5.45059204 354.2291565-354.22544861-76.3008728-76.29716492z" fill="#ffffff" p-id="2411"></path><path d="M384.65823872 826.59185791h-117.16918945c-19.07336426 0-32.69613648-13.6264801-32.69613647-29.97454834V229.85214234c0-16.34806823 13.62277222-29.97084045 32.69613647-29.97084046h479.57052612c19.07336426 0 32.69613648 13.62277222 32.69613648 29.97084046v133.51725769c0 16.34806823 10.8974762 27.24925232 27.24925232 27.24925231s27.24925232-10.8974762 27.24925232-27.24925232V229.85214234c0-46.32261658-38.14672852-84.4693451-87.19464112-84.4693451H267.48904927c-49.0479126 0-87.19464112 38.14672852-87.19464112 84.4693451V796.61730957c0 46.32261658 38.14672852 84.4693451 87.19464112 84.46934509h117.16918945c16.34806823 0 27.24554443-10.8974762 27.24554443-27.24925232s-10.8974762-27.24554443-27.24554443-27.24554443z" fill="#ffffff" p-id="2412"></path><path d="M398.28101094 635.85079956H343.7825063c-16.34806823 0-27.24925232 10.8974762-27.24925232 27.24925232s10.8974762 27.25296021 27.24925232 27.2529602h54.49850464c16.34806823 0 27.24554443-10.8974762 27.24554444-27.2529602 0-16.34806823-10.8974762-27.24925232-27.24554444-27.24925232z m299.73435974-326.97990417c0-16.34806823-13.63018799-27.24925232-29.97454834-27.24925232H346.50780232c-16.34806823 0-29.97084045 10.8974762-29.97084045 27.24925232s13.62277222 27.24925232 29.97084045 27.24925232h321.53302002c16.34436036 0 29.97454834-10.90118408 29.97454834-27.24925232z m-351.50756836 136.2425537c-16.34806823 0-29.97084045 10.8974762-29.97084045 27.24925232s13.62277222 27.24925232 29.97084045 27.24925232h239.78526307c16.34806823 0 29.97454834-10.8974762 29.97454833-27.24925232s-13.6264801-27.24925232-29.97454833-27.24925232H346.50780232z" fill="#ffffff" p-id="2413"></path></svg>