<svg t="1569576344574" class="icon" viewBox="0 0 1024 1024" version="1.1" xmlns="http://www.w3.org/2000/svg" p-id="8552" width="128" height="128"><path d="M512 658.676096A146.676096 146.676096 0 1 1 658.676096 512 146.676096 146.676096 0 0 1 512 658.676096z m0-244.46016A97.784064 97.784064 0 1 0 609.784064 512 97.784064 97.784064 0 0 0 512 414.215936z" p-id="8553"></path><path d="M512 811.4631111c-265.60506311 0-475.16841245-273.1220551-483.96865067-284.73443909L16.9687609 512l11.12341688-14.72867201C36.83041778 485.658944 246.39493689 212.5368889 512 212.5368889s475.16841245 273.1220551 483.96865067 284.73443909L1007.0312391 512l-11.12341688 14.72867201C987.16958222 538.341056 777.60506311 811.4631111 512 811.4631111zM79.00090667 512C125.81541333 567.7984 304.208864 762.5710791 512 762.5710791S898.12375822 567.7984 944.99909333 512C898.12375822 456.2016 719.791136 261.4289209 512 261.4289209S125.87624178 456.2016 79.00090667 512z" p-id="8554"></path></svg>