<svg t="1569576295810" class="icon" viewBox="0 0 1024 1024" version="1.1" xmlns="http://www.w3.org/2000/svg" p-id="7821" width="128" height="128"><path d="M172.8 492.8c-38.4-42.666667-68.266667-93.866667-87.466667-151.466667l61.866667-21.333333c53.333333 157.866667 202.666667 264.533333 366.933333 264.533333 164.266667-2.133333 309.333333-106.666667 360.533334-264.533333l61.866666 21.333333c-19.2 57.6-49.066667 108.8-87.466666 153.6l81.066666 89.6-49.066666 42.666667-76.8-85.333333c-42.666667 38.4-93.866667 66.133333-147.2 85.333333l36.266666 98.133333-61.866666 21.333334-38.4-104.533334c-25.6 4.266667-53.333333 6.4-78.933334 8.533334-25.6 0-51.2-2.133333-76.8-6.4L401.066667 746.666667l-61.866667-21.333334 36.266667-98.133333c-57.6-19.2-110.933333-49.066667-155.733334-87.466667l-78.933333 87.466667-49.066667-42.666667z" fill="#333333" p-id="7822"></path></svg>