<svg t="1569574124058" class="icon" viewBox="0 0 1024 1024" version="1.1" xmlns="http://www.w3.org/2000/svg" p-id="3386" width="128" height="128"><path d="M902.06761 446.34624c0-0.27648 0.11776-0.54784 0.11776-0.9472V38.55872c0-21.26848-17.05472-38.55872-38.2464-38.55872a38.44096 38.44096 0 0 0-38.28224 38.59456v407.07584H198.22121V38.59968C198.22121 17.3312 181.13065 0 159.94409 0a38.44096 38.44096 0 0 0-38.28224 38.59456v406.80448c0 0.27648 0.15872 0.55296 0.15872 0.9472C53.14089 451.20512-0.06615 508.37504 0.00041 577.21856v314.92096c-0.17408 72.64768 58.57792 131.6864 131.23072 131.86048h761.53856c72.64768-0.17408 131.4048-59.20768 131.23072-131.86048v-314.92096c-0.09216-68.82816-53.27872-125.92128-121.9328-130.87232z m45.21472 445.952c0 30.20288-24.34048 54.66624-54.43072 54.66624l0.04096-0.04096H132.33193c-30.09024 0-54.43072-24.4224-54.43072-54.62528v-315.07968c0-30.208 24.34048-54.62528 54.43072-54.62528h760.51968c30.09024 0 54.43072 24.41728 54.43072 54.62528v315.07968z" fill="" p-id="3387"></path><path d="M400.34345 282.5472a29.93664 29.93664 0 0 0 0 43.52 33.23904 33.23904 0 0 0 45.45024 0c32.01536-30.09536 81.92512-30.09536 113.94048 0a32.768 32.768 0 0 0 45.29664 0 29.9264 29.9264 0 0 0 0-43.52c-56.40192-53.99552-148.2496-53.99552-204.68736 0z" fill="" p-id="3388"></path><path d="M634.64489 250.76224c6.26176 6.61504 14.4128 9.88672 22.56384 9.88672a30.43328 30.43328 0 0 0 22.41024-9.84576 34.93376 34.93376 0 0 0 0-47.41632C587.26441 105.984 436.73641 105.984 344.38185 203.38176a34.92864 34.92864 0 0 0 0 47.38048 30.72 30.72 0 0 0 44.97408 0c67.62496-71.44448 177.78688-71.28576 245.28896 0z" fill="" p-id="3389"></path><path d="M260.60841 182.23104a33.16224 33.16224 0 0 0 45.96224 0h-0.04096A284.7232 284.7232 0 0 1 507.39241 100.70528c75.85792 0 147.17952 28.90752 200.7808 81.52576a32.6912 32.6912 0 0 0 45.68576 0 31.3856 31.3856 0 0 0 0-44.89728A350.1568 350.1568 0 0 0 507.27465 37.21728 349.952 349.952 0 0 0 260.60841 137.33376a31.39072 31.39072 0 0 0 0 44.89728zM380.10409 635.8272h130.16576v127.52384H380.10409zM186.17385 635.8272h130.20672v127.52384H186.17385z"  p-id="3390"></path></svg>