<svg t="1569575566447" class="icon" viewBox="0 0 1024 1024" version="1.1" xmlns="http://www.w3.org/2000/svg" p-id="4434" width="128" height="128"><path d="M511.7568 1022.208C229.6448 1022.208 0 793.024 0 511.104 0 229.1968 229.6576 0 511.7568 0c282.112 0 511.7696 229.3632 511.7696 511.104S794.0352 1022.208 511.744 1022.208z m0-956.2624C265.984 65.9456 66.0224 265.6384 66.0224 511.104S265.984 956.2624 511.7568 956.2624c245.7856 0 445.7344-199.68 445.7344-445.1584 0-245.4656-199.9488-445.1584-445.7344-445.1584z" p-id="4435" fill="#ffffff"></path><path d="M617.2416 830.592a151.3344 151.3344 0 0 1-107.776-44.5824c-54.1568-54.0672-59.584-140.3648-12.736-200.704l0.8448-1.1904-274.816-274.4576 97.1008-96.7936a32.896 32.896 0 0 1 23.424-9.664c8.832 0 17.152 3.392 23.424 9.664s9.6768 14.5792 9.6768 23.3984a32.128 32.128 0 0 1-9.6768 23.2192l-50.24 50.176 51.584 51.5328 50.2528-50.176a32.896 32.896 0 0 1 23.424-9.664c8.832 0 17.152 3.392 23.424 9.664s9.6768 14.592 9.6768 23.3984c0 8.8064-3.392 17.1136-9.6768 23.3856l-50.24 50.176L549.504 542.4256l1.024-0.512a153.0112 153.0112 0 0 1 67.0336-15.424c40.7424 0 78.9376 15.7696 107.776 44.5824a151.3472 151.3472 0 0 1 44.6464 107.648 150.656 150.656 0 0 1-44.6336 107.648c-29.1968 28.48-67.392 44.2368-108.1216 44.2368z m0-238.336c-23.0912 0-44.8128 8.9856-61.1072 25.2544-33.6128 33.5616-33.6128 88.32 0 121.8816a85.952 85.952 0 0 0 61.1072 25.2672c23.0784 0 44.8-8.9856 61.1072-25.2672 33.6-33.5616 33.6-88.32 0-121.8816a86.2464 86.2464 0 0 0-61.1072-25.2544z" p-id="4436" fill="#ffffff"></path></svg>