<svg t="1587966469011" class="icon" viewBox="0 0 1024 1024" version="1.1" xmlns="http://www.w3.org/2000/svg" p-id="3001" width="128" height="128"><path d="M520.5 661c-39.2 36.2-74 67.9-106.7 97.3 13 15.8 26.1 29.4 39.2 45.2 41.4-38.5 80.6-79.2 124.1-113.1 30.5-24.9 37-54.3 28.3-92.8H459.5c39.2-38.4 74-70.1 108.9-101.8-13.1-15.8-26.1-29.4-41.4-45.2-41.4 38.5-82.8 79.2-124.1 117.6-32.7 24.9-34.8 54.3-28.3 92.8h145.9z m351-597.2H151.8c-48 0-87.7 40.3-87.7 91.1v713.8c0 49.8 38.8 91.1 87.7 91.1h720.6c48 0 87.7-40.3 87.7-91.1V154.9c-0.9-50.8-39.8-91.1-88.6-91.1zM897 867.7c0 14.7-11.4 26.6-25.5 26.6H151.8c-14.2 0-25.6-11.9-25.6-26.6v-522H897v522z m1-586.6H126.2V154.9c0-14.7 11.4-26.6 25.6-26.6h720.6c14.1 0 25.6 11.9 25.6 26.6v126.2zM194.7 162.9c-24.2 0-43.8 20.4-43.8 45.6 0 25.2 19.6 45.6 43.8 45.6 24.2 0 43.9-20.4 43.9-45.6 0-25.1-19.7-45.6-43.9-45.6z m632 11.9c-17.8 0-32.4 15.2-32.4 33.7 0 18.5 14.6 33.7 32.4 33.7 17.8 0 32.4-15.2 32.4-33.7 0-18.5-14.6-33.7-32.4-33.7z m-227.6 0c-17.8 0-32.5 15.2-32.5 33.7 0 18.5 14.6 33.7 32.5 33.7 17.8 0 32.4-15.2 32.4-33.7 0.1-18.5-14.5-33.7-32.4-33.7z m113.8 0c-17.8 0-32.4 15.2-32.4 33.7 0 18.5 14.6 33.7 32.4 33.7 17.8 0 32.5-15.2 32.5-33.7 0-18.5-14.7-33.7-32.5-33.7z" p-id="3002" fill="#ffffff"></path></svg>