<svg t="1569575752438" class="icon" viewBox="0 0 1097 1024" version="1.1" xmlns="http://www.w3.org/2000/svg" p-id="5504" width="128" height="128"><path d="M342.013068 564.301083a7.826219 7.826219 0 0 0-1.755413 2.925689l-55.149242 194.265764a32.255724 32.255724 0 0 0 8.777068 32.109439c6.582801 6.143947 15.140442 9.435348 24.136936 9.435348 3.071974 0 6.143947-0.292569 9.142779-1.097134l200.994848-52.662406c0.292569 0 0.511996 0.292569 0.65828 0.292569a8.923352 8.923352 0 0 0 6.21709-2.486836l537.375965-515.872149c15.945006-15.359868 24.722074-36.132262 24.722074-58.952638a99.473433 99.473433 0 0 0-31.231732-70.655394l-50.83385-48.785868A107.080225 107.080225 0 0 0 941.413645 22.682868a87.770676 87.770676 0 0 0-61.439473 23.698083L342.890775 562.691954c-0.511996 0.438853-0.365711 1.170276-0.804564 1.609129z m678.028475-383.338428l-53.247544 51.199561-86.600401-84.479276 52.662406-50.614423c8.265072-8.045645 24.502647-6.87537 33.937995 2.267409l50.760708 48.785867c5.339383 5.119956 8.484499 11.849041 8.484498 18.431842a20.114113 20.114113 0 0 1-5.997662 14.40902zM437.683106 572.566155l387.800104-372.440236 86.600401 84.479276-387.214967 371.708814-87.185538-83.747854z m-70.801679 150.965563l27.940332-98.74201 74.751359 71.679385-102.691691 27.062625z m687.244395-338.209672a36.644257 36.644257 0 0 0-37.156253 35.693408v480.910164c0 25.160927-21.211247 45.567609-47.688734 45.567609H121.781813c-26.331203 0-47.688734-20.406682-47.688734-45.567609V116.890061a46.811027 46.811027 0 0 1 47.688734-45.787036h545.787322c20.479824 0 37.083111-15.871864 37.083111-35.547124A36.278546 36.278546 0 0 0 667.569135 0.008777h-551.492416C52.15041 0.008777 0 49.96492 0 111.477536v795.787465c0 61.512616 52.077268 111.541901 116.149862 111.541901h858.689782c64.145736 0 116.296146-50.029285 116.296146-111.541901V420.722885a36.497973 36.497973 0 0 0-37.009968-35.400839z" p-id="5505"></path></svg>