<svg t="1569575658348" class="icon" viewBox="0 0 1024 1024" version="1.1" xmlns="http://www.w3.org/2000/svg" p-id="4951" width="128" height="128"><path d="M184.32 875.99104a15.36 15.36 0 0 1-30.72 0v-0.18432c0-8.45824 6.88128-15.2576 15.36-15.2576s15.36 6.9632 15.36 15.44192zM168.96 184.79104a15.36 15.36 0 0 1-15.36-15.36v-0.16384c0-8.47872 6.88128-15.27808 15.36-15.27808a15.42144 15.42144 0 0 1 0 30.80192zM368.64 430.08c0 16.93696-13.78304 30.72-30.72 30.72h-61.44c-16.93696 0-30.72-13.78304-30.72-30.72v-61.44c0-16.93696 13.78304-30.72 30.72-30.72h61.44c16.93696 0 30.72 13.78304 30.72 30.72v61.44z m-92.16-61.44v61.44h61.44v-61.44h-61.44zM368.64 614.4c0 16.93696-13.78304 30.72-30.72 30.72h-61.44c-16.93696 0-30.72-13.78304-30.72-30.72v-61.44c0-16.93696 13.78304-30.72 30.72-30.72h61.44c16.93696 0 30.72 13.78304 30.72 30.72v61.44z m-92.16-61.44v61.44h61.44v-61.44h-61.44zM368.64 798.72c0 16.93696-13.78304 30.72-30.72 30.72h-61.44c-16.93696 0-30.72-13.78304-30.72-30.72v-61.44c0-16.93696 13.78304-30.72 30.72-30.72h61.44c16.93696 0 30.72 13.78304 30.72 30.72v61.44z m-92.16-61.44v61.44h61.44v-61.44h-61.44z" p-id="4952" fill="#ffffff"></path><path d="M61.44 906.24V138.24C61.44 98.77504 98.75456 61.44 138.24 61.44h706.56a15.36 15.36 0 0 1 0 30.72H138.24C115.83488 92.16 92.16 115.83488 92.16 138.24v768c0 22.40512 23.67488 46.08 46.08 46.08h768c22.40512 0 46.08-23.67488 46.08-46.08V138.24c0-22.40512-23.67488-46.08-46.08-46.08a15.36 15.36 0 0 1 0-30.72C945.70496 61.44 983.04 98.75456 983.04 138.24v768c0 39.48544-37.33504 76.8-76.8 76.8H138.24C98.75456 983.04 61.44 945.72544 61.44 906.24z" p-id="4953" fill="#ffffff"></path><path d="M337.92 153.6c16.93696 0 30.72 13.78304 30.72 30.72v61.44c0 16.93696-13.78304 30.72-30.72 30.72h-61.44c-16.93696 0-30.72-13.78304-30.72-30.72V184.32c0-16.93696 13.78304-30.72 30.72-30.72h61.44z m-61.44 30.72v61.44h61.44V184.32h-61.44zM540.672 586.752a15.36 15.36 0 0 1-30.72 0v-15.36h-46.08a15.36 15.36 0 0 1 0-30.72h276.48a15.36 15.36 0 0 1 0 30.72h-15.36v15.36a15.36 15.36 0 0 1-30.72 0v-15.36h-30.72v15.36a15.36 15.36 0 0 1-30.72 0v-15.36h-30.72v15.36a15.36 15.36 0 0 1-30.72 0v-15.36h-30.72v15.36zM890.88 875.99104a15.36 15.36 0 0 1-30.72 0v-0.18432c0-8.45824 6.88128-15.2576 15.36-15.2576s15.36 6.9632 15.36 15.44192zM860.16 169.2672c0-8.47872 6.88128-15.27808 15.36-15.27808a15.42144 15.42144 0 0 1 0 30.78144 15.36 15.36 0 0 1-15.36-15.36v-0.14336zM463.872 798.72h276.48a15.36 15.36 0 0 1 0 30.72h-276.48a15.36 15.36 0 0 1 0-30.72zM463.872 688.128h276.48a15.36 15.36 0 0 1 0 30.72h-276.48a15.36 15.36 0 0 1 0-30.72zM463.872 172.032h276.48a15.36 15.36 0 0 1 0 30.72h-276.48a15.36 15.36 0 0 1 0-30.72zM463.872 282.624h276.48a15.36 15.36 0 0 1 0 30.72h-276.48a15.36 15.36 0 0 1 0-30.72zM463.872 393.216h276.48a15.36 15.36 0 0 1 0 30.72h-276.48a15.36 15.36 0 0 1 0-30.72z" p-id="4954" fill="#ffffff"></path></svg>