<svg t="1569575129151" class="icon" viewBox="0 0 1024 1024" version="1.1" xmlns="http://www.w3.org/2000/svg" p-id="3005" width="128" height="128"><path d="M983.8 376.7c-25.8-61-62.7-115.7-109.7-162.7s-101.8-83.9-162.7-109.7c-63.1-26.7-130.2-40.2-199.3-40.2s-136.2 13.5-199.3 40.2c-61 25.8-115.7 62.7-162.7 109.7s-83.9 101.8-109.7 162.7c-26.7 63.1-40.2 130.2-40.2 199.3 0 56.4 9.1 111.8 27.1 164.7 17.4 51.2 42.7 99.2 75.3 142.5 6.3 8.4 15.9 12.8 25.6 12.8H896.1c9.7 0 19.3-4.4 25.6-12.8 32.6-43.4 58-91.3 75.3-142.5 18-52.9 27.1-108.3 27.1-164.8-0.1-69-13.6-136.1-40.3-199.2z m-104.1 455.3h-735.3c-52.6-75.2-80.3-163.4-80.3-256 0-247 201-448 448-448s448 201 448 448c-0.1 92.6-27.8 180.7-80.4 256z" p-id="3006"></path><path d="M528.6 642.2l-152.4-173.4 74 218.6c-1.4 5.3-2.2 10.9-2.2 16.6 0 35.3 28.7 64 64 64s64-28.7 64-64c0-29.6-20.1-54.5-47.4-61.8zM480 190.8h64v192h-64zM260.476 326.009l49.037-41.127 82.253 98.074-49.037 41.126zM284.623 568.41l-126.054-22.208 11.104-63.027 126.054 22.208zM865.405 546.218l-126.055 22.208-11.104-63.027 126.055-22.208zM632.314 382.875l82.253-98.073 49.037 41.126-82.253 98.074z" p-id="3007"></path></svg>