<svg t="1569575611178" class="icon" viewBox="0 0 1024 1024" version="1.1" xmlns="http://www.w3.org/2000/svg" p-id="4779" width="128" height="128"><path d="M512 1024C229.232 1024 0 794.768 0 512 0 229.232 229.232 0 512 0c282.768 0 512 229.232 512 512 0 282.768-229.232 512-512 512z m0-992C246.896 32 32 246.896 32 512c0 265.088 214.896 480 480 480 265.104 0 480-214.912 480-480C992 246.896 777.104 32 512 32z m340.384 689.968l-326.032 124.8a17.808 17.808 0 0 1-12.704 0l-326.048-124.8a17.952 17.952 0 0 1-11.488-16.768V318.928c0-0.128 0.08-0.24 0.096-0.368a17.76 17.76 0 0 1 1.92-7.872c0.064-0.128 0.176-0.208 0.24-0.336 1.232-2.32 3.008-4.24 5.168-5.84 0.112-0.096 0.16-0.256 0.288-0.352 0.192-0.128 0.416-0.112 0.592-0.224 1.056-0.688 1.968-1.552 3.184-2.016l326.048-124.816a17.92 17.92 0 0 1 12.704 0l326.032 124.816c1.232 0.464 2.128 1.328 3.184 2.016 0.176 0.112 0.416 0.096 0.592 0.224 0.144 0.096 0.192 0.256 0.32 0.352a17.6 17.6 0 0 1 5.152 5.84c0.064 0.128 0.16 0.208 0.224 0.336 1.232 2.432 1.92 5.088 1.936 7.872 0 0.128 0.096 0.24 0.096 0.368v386.272c0 7.44-4.576 14.112-11.504 16.768z m-640.576-29.12l290.336 111.136V456.112L211.808 344.96v347.888zM520 213.072l-276.224 105.728L520 424.544l276.224-105.744L520 213.072z m308.192 131.888l-290.352 111.152v347.872l290.352-111.136V344.96z" p-id="4780" fill="#ffffff"></path></svg>