<svg t="1569572554955" class="icon" viewBox="0 0 1024 1024" version="1.1" xmlns="http://www.w3.org/2000/svg" p-id="2250" width="128" height="128"><path d="M976.896 488.448l-84.48-49.152-59.904 34.304 69.632 40.448-391.168 225.792-390.144-225.28 70.144-40.448L131.584 440.32 47.104 488.96c-14.336 8.192-18.944 26.624-10.752 40.96 1.536 3.072 4.096 6.144 6.656 8.704L496.64 800.768c4.608 2.56 9.728 4.096 14.848 4.096 5.632 0 10.752-1.536 15.36-4.096l450.56-260.096c14.336-8.192 18.944-26.624 10.752-40.96-2.56-4.608-6.656-8.704-11.264-11.264z" p-id="2251"></path><path d="M43.008 318.976L496.64 581.12c4.608 2.56 9.728 4.096 14.848 4.096 5.632 0 10.752-1.536 15.36-4.096l450.56-260.096c14.336-8.192 18.944-26.624 10.752-40.96-2.56-4.608-6.656-8.704-11.264-11.264L528.384 9.216c-4.608-2.56-9.728-4.096-14.848-4.096-6.144 0-11.776 1.536-16.896 5.12L47.104 269.824c-14.336 8.192-18.944 26.624-10.752 40.96 1.536 3.072 3.584 5.632 6.656 8.192zM976.896 708.096l-83.968-48.64-59.904 34.304 69.632 40.448-391.168 225.792-390.144-225.28 69.632-39.936-59.904-34.304-84.48 48.64c-14.336 8.192-18.944 26.624-10.752 40.96 2.048 3.072 4.096 6.144 7.168 8.192v0.512l453.632 261.12c4.608 2.56 9.728 4.096 14.848 4.096 5.632 0 10.752-1.536 15.36-4.096l450.56-260.096c14.336-8.192 18.944-26.624 10.752-40.96-2.56-4.608-6.656-8.192-11.264-10.752z" p-id="2252"></path></svg>