<svg t="1569575542259" class="icon" viewBox="0 0 1024 1024" version="1.1" xmlns="http://www.w3.org/2000/svg" p-id="4261" width="128" height="128"><path d="M334.866679 668.093646c-9.633659 10.113437-9.633659 26.500677 0 36.602826 9.647771 10.123315 25.265955 10.123315 34.909492 0 9.643537-10.102149 9.643537-26.489388 0-36.602826C360.132633 657.988675 344.514449 657.988675 334.866679 668.093646z" p-id="4262" fill="#ffffff"></path><path d="M925.899516 340.559103c-22.439498-54.181044-55.647189-103.874753-97.111295-145.340269-41.46975-41.46975-91.16487-74.671797-145.344503-97.115528-54.178222-22.443731-112.801445-34.102336-171.440191-34.102336-58.64439 0-117.266203 11.658605-171.444424 34.102336-54.178222 22.443731-103.874753 55.647189-145.338858 97.115528-41.46975 41.465517-74.67603 91.160637-97.115528 145.340269-22.443731 54.178222-34.102336 112.800034-34.102336 171.443013 0 58.640157 11.658605 117.26338 34.102336 171.441602 22.439498 54.178222 55.647189 103.873342 97.115528 145.343092 41.464106 41.465517 91.160637 74.671797 145.338858 97.111295 54.179633 22.443731 112.801445 34.102336 171.444424 34.102336 58.640157 0 117.26338-11.658605 171.440191-34.102336 54.179633-22.439498 103.874753-55.647189 145.344503-97.111295 41.465517-41.46975 74.671797-91.16487 97.111295-145.343092 22.443731-54.179633 34.102336-112.801445 34.102336-171.441602C960.001852 453.359138 948.343247 394.737325 925.899516 340.559103zM730.382938 487.503807c-35.708181 37.431148-87.577824 47.675819-132.664253 31.637124l-49.824942 52.253465 19.73863 20.702419 4.035779-4.243213c8.137881-8.523115 19.902319-11.998683 27.6846-3.829757l94.650316 99.264651c7.778048 8.143525 8.321326 24.546288 0.193322 33.076458l-44.005518 46.151819c-8.137881 8.531581-22.330842 6.444547-30.099012-1.707445l-94.636205-99.274529c-7.787925-8.168926-5.925258-18.98933 2.211212-27.511033l5.469469-5.754513-19.734397-20.701008-139.602689 146.415537c-8.892826 9.324626-23.322854 9.324626-32.21568 0l-42.955651-45.055385c-8.908348-9.33027-8.908348-24.46021 0-33.800358l139.598456-146.405659-120.219659-126.101173-19.359041 10.134604-42.648028-67.173149 40.671061-42.645206 64.032015 44.722362-8.205614 18.78613 120.223893 126.09694 47.05493-49.355042c-19.652552-49.134909-10.653893-107.976854 27.381211-147.868982 38.416104-40.292883 95.766505-48.899253 141.335535-29.118289l-67.703727 71.011373c-18.412185 19.336463-16.988373 52.414332 1.413934 71.736684 18.427707 19.322352 49.988631 20.806842 68.409283 1.495778l67.702316-71.009962C777.181045 387.244322 768.803275 447.201046 730.382938 487.503807z" p-id="4263" fill="#ffffff"></path></svg>