<svg t="1569575189067" class="icon" viewBox="0 0 1109 1024" version="1.1" xmlns="http://www.w3.org/2000/svg" p-id="3132" width="128" height="128"><path d="M529.066667 558.933333l89.6-136.533333h-98.133334l-85.333333 213.333333 136.533333-55.466666-29.866666 81.066666-38.4-34.133333 21.333333 136.533333 119.466667-119.466666-59.733334 21.333333 68.266667-157.866667z" p-id="3133" fill="#ffffff"></path><path d="M618.666667 166.4c-17.066667-17.066667-42.666667-25.6-72.533334-25.6-25.6 0-51.2 12.8-68.266666 29.866667l-315.733334 302.933333c-17.066667 17.066667-25.6 42.666667-17.066666 64l4.266666 12.8c12.8 17.066667 34.133333 29.866667 55.466667 29.866667h38.4v221.866666C247.466667 853.333333 294.4 896 345.6 896h413.866667c55.466667 0 98.133333-42.666667 102.4-93.866667v-221.866666h38.4c25.6 0 55.466667-12.8 59.733333-38.4 8.533333-25.6 0-46.933333-17.066667-64l-324.266666-311.466667z m298.666666 362.666667s-8.533333 4.266667-17.066666 4.266666h-64c-12.8 0-21.333333 8.533333-21.333334 21.333334v243.2c-4.266667 29.866667-25.6 51.2-55.466666 51.2H345.6c-25.6 0-51.2-21.333333-51.2-51.2v-247.466667c0-12.8-8.533333-21.333333-21.333333-21.333333H209.066667c-8.533333 0-12.8-4.266667-17.066667-8.533334-4.266667-4.266667 0-12.8 4.266667-21.333333l320-302.933333c8.533333-8.533333 21.333333-17.066667 34.133333-17.066667 17.066667 0 29.866667 4.266667 38.4 12.8l324.266667 307.2c4.266667 12.8 8.533333 21.333333 4.266666 29.866667z" p-id="3134" fill="#ffffff"></path></svg>