<svg t="1569575591407" class="icon" viewBox="0 0 1024 1024" version="1.1" xmlns="http://www.w3.org/2000/svg" p-id="4607" width="128" height="128"><path d="M910.680719 807.037658l-205.811651-203.292763a212.641322 212.641322 0 0 0 20.611883-91.66298c0-117.988441-95.277483-213.388797-213.388797-213.388797a213.184009 213.184009 0 0 0-57.012899 7.67954l91.355799 91.017899c37.814051 38.16219 34.977741 101.963802-6.143631 142.982781-40.916585 40.783473-105.056097 43.640262-142.890627 6.143631l-91.120293-91.66298a213.204488 213.204488 0 0 0-7.679539 57.238165c0 118.213707 95.615383 214.033878 213.50143 214.033878 32.448613 0 63.924485-7.464512 91.33532-20.837149L808.399496 909.032178c26.202588 25.649661 69.83261 24.113753 97.919245-4.402936 27.943283-27.851129 29.929724-71.931684 4.361978-97.591584z m-55.261964 82.898066c-19.843929 0-36.595564-16.229426-36.595564-36.411255 0-19.516269 16.761874-35.530668 36.595564-35.530669 20.069196 0 36.196228 16.00416 36.196228 35.530669a36.196228 36.196228 0 0 1-36.196228 36.411255zM960.044797 417.33688h-20.837149l-48.565407-0.430054h-0.337899a60.248545 60.248545 0 0 1-27.195809-9.645502c-0.552927 0-0.757715-0.235506-1.095614-0.66556a62.767434 62.767434 0 0 1-28.393816-53.306241c0-7.013979 1.423275-13.362398 3.624742-19.956563a53.551987 53.551987 0 0 1 10.198428-19.50603l10.761595-10.976621 24.226386-23.898726 14.263464-14.478491c20.714277-26.745275 20.714277-65.132732-0.767954-92.103274l-41.66406-42.769914c-27.748735-21.267204-66.013319-21.932764-93.106733-1.310641l-15.133812 14.468252-33.779733 34.650081h-0.450533c-18.410415 14.918785-43.845049 17.765334-64.907466 8.549887a69.136332 69.136332 0 0 1-20.069196-13.597905c-9.973162-10.751355-16.106554-23.693938-17.867728-37.506869V64.702678C604.768834 30.707918 577.788053 3.952403 543.00486 0h-59.429395c-34.097154 3.737376-61.620623 30.482651-66.453612 64.262384V133.777573c-0.215027 1.750935-0.870348 3.727136-0.982981 5.263045v0.65532c-0.542687 1.750935-0.767954 3.50187-0.982981 5.048017-0.655321 0-0.655321 0.66556-0.655321 0.66556-0.655321 1.525668-0.99322 3.942163-1.863568 5.037778-0.552927 1.965962-1.648541 3.512109-2.518889 5.252805v0.225266a55.50771 55.50771 0 0 1-15.471712 19.301242 63.637782 63.637782 0 0 1-41.438793 15.133812 61.66158 61.66158 0 0 1-39.268044-13.812931l-10.853749-10.966382-24.113753-23.683699-14.693519-14.918785c-26.980781-20.611883-65.245365-20.611883-92.123752 1.095615l-42.647041 42.114593c-21.50271 26.755515-21.83037 65.132732-1.320881 92.553806l14.703758 14.468252 34.435053 34.220027 1.863569 3.071816c0.430054 0.215027 0.870348 1.095614 1.761174 2.191228 0.430054 0.655321 0.870348 1.965962 1.525668 2.84655 0 0.215027 1.105854 1.310641 1.105854 1.965962 0.655321 0.880587 1.310641 2.406256 2.078595 3.501869 0 0.655321 0.215027 1.320881 0.552927 1.976202 0.655321 0.870348 0.880587 2.416495 1.863568 3.737376 0 0.430054 0.102394 1.095614 0.327661 1.750935 0.225266 1.965962 1.208248 3.512109 1.208247 5.467832 0.542687 1.986441 0.870348 3.727136 0.870348 5.713577 2.754395 18.850709-3.614503 38.602484-18.308022 53.070736a62.562646 62.562646 0 0 1-37.609263 18.195388H65.030338c-34.097154 4.83299-60.965302 32.00832-64.805072 65.788052L0 540.588365c3.512109 34.435054 30.267624 61.415835 64.262384 66.023558h20.939544l48.463012 0.645082c1.761174 0.215027 4.16743 0.215027 5.826211 0.880587h1.638301c1.535908 0.645081 2.416495 1.085375 4.17767 1.310641a64.15999 64.15999 0 0 1 45.16593 61.405596 63.740176 63.740176 0 0 1-13.915325 39.902886l-10.638722 10.311061-24.461892 23.908965-14.580886 14.468252c-20.407096 27.421075-20.407096 65.573026 0.757715 92.33878l42.442253 42.749435a75.361878 75.361878 0 0 0 92.553807 0.880587l14.468252-14.468252 34.772954-33.99476c0-0.430054 0.32766-0.430054 0.767954-0.645081 1.310641-1.320881 2.733916-1.965962 3.727136-3.286843 1.198008-0.225266 1.423275-0.225266 2.293622-0.870348 0.66556-0.440294 1.761174-1.33112 2.641762-1.965962 1.198008-0.66556 2.744155-0.901066 3.942163-1.546147 0.767954-0.419815 1.310641-0.645081 1.535908-1.095614 1.853329-0.215027 3.061576-0.870348 5.478072-1.51543 2.078595-0.66556 3.512109-1.535908 5.048017-1.535907h0.552926c1.648541-0.450533 3.399476-0.655321 5.263045-1.095615h0.430054c1.535908 0 3.071816 0 4.392696-0.65532 17.775573-0.655321 35.745695 5.49855 48.903306 19.086215 10.966382 10.515849 16.65948 24.113753 18.533288 37.936923l-0.225266 14.898306v54.401856c4.177669 34.424815 31.465632 61.405596 65.562786 64.917705h59.982321c34.33266-3.512109 61.292962-30.277863 66.013319-63.811851v-20.611883l0.542688-35.100614v-13.823171a63.00294 63.00294 0 0 1 12.727556-32.018559 11.570506 11.570506 0 0 1 1.955723-2.406255c0.450533-0.225266 1.00346-1.535908 1.99668-1.965962a78.761354 78.761354 0 0 1 12.809471-11.191649c1.443753-0.225266 2.867028-1.310641 3.737376-1.965962 1.085375-0.655321 1.085375-0.655321 1.535908-0.655321 0.645081-0.215027 1.095614-0.215027 1.208247-0.215027 1.187769-0.890827 2.191229-0.890827 3.614503-1.535908l-57.350799-57.238165c-24.891946 7.239246-51.094534 10.741116-78.198188 10.741115-155.157411-0.215027-280.17007-125.862528-279.617143-280.251985 0-155.280283 126.098034-280.712757 281.050657-280.282703 154.727356 0.655321 279.617143 126.323301 279.391877 281.153051-0.102394 26.315221-4.044557 52.425654-11.058537 76.088875l57.780854 56.808111c2.969422-6.798952 7.6693-12.737796 12.942583-18.645921 5.938844-5.693098 13.83341-10.075555 21.052177-12.932344 5.375677-2.406256 10.976621-4.16743 16.352299-4.83299h69.975961c33.984521-4.607724 60.842429-31.568026 64.682199-65.562786v-60.535248c-3.378997-33.820691-30.021879-61.241765-63.801612-65.849489z" p-id="4608" fill="#ffffff"></path></svg>