<svg t="1569575477272" class="icon" viewBox="0 0 1024 1024" version="1.1" xmlns="http://www.w3.org/2000/svg" p-id="3870" width="128" height="128"><path d="M306.221 748.829h543.15c26.615 0 48.215 21.214 48.215 47.378s-21.6 47.379-48.215 47.379h-543.15a97.329 97.329 0 0 1-108.514 44.228 95.143 95.143 0 0 1-71.421-91.543c0-42.878 29.314-80.357 71.421-91.414a96.621 96.621 0 0 1 108.514 43.972z m122.272-189.515H174.629c-26.615 0-48.215-21.214-48.215-47.314s21.6-47.379 48.215-47.379h253.864A97.071 97.071 0 0 1 512 417.18c34.521 0 66.279 18.064 83.571 47.378H849.5c26.614 0.064 48.214 21.343 48.214 47.443s-21.6 47.314-48.214 47.314H595.571A97.007 97.007 0 0 1 512 606.821a97.071 97.071 0 0 1-83.507-47.507z m289.286-378.9a97.264 97.264 0 0 1 108.45-44.228 95.143 95.143 0 0 1 71.485 91.543c0 42.878-29.314 80.357-71.485 91.414a97.071 97.071 0 0 1-108.45-44.164h-543.15a47.829 47.829 0 0 1-48.215-47.379c0-26.1 21.6-47.379 48.215-47.379h543.15v0.193z m0 0" p-id="3871" fill="#ffffff"></path></svg>