<svg t="1569574933939" class="icon" viewBox="0 0 1024 1024" version="1.1" xmlns="http://www.w3.org/2000/svg" p-id="2310" width="128" height="128"><path d="M512 962C263.601875 962 62 760.398125 62 512S263.601875 62 512 62s450 201.601875 450 450-201.601875 450-450 450z m320.055-606.0271875c-23.4084375 7.7990625-50.71125001-7.7990625-58.520625-31.20656249-7.7990625-27.3028125 7.7990625-54.615 35.1121875-58.52062501h3.90468749c-62.4346875-74.0990625-148.1971875-124.809375-249.64874999-136.513125 0 0-1.0996875 25.1334375-1.0996875 55.5946875s-36.68625001 35.9503125-49.610625 35.9503125-47.4215625-8.990625-47.4215625-41.44875001 0.605625-54 0.60562499-54c-97.5159375 11.7046875-193.419375 68.61-255.83343749 138.81375001l18.93843749 10.8159375c18.1621875 12.1078125 34.809375 34.809375 16.64812501 65.0784375-16.8403125 28.0696875-56.664375 15.448125-56.664375 15.448125l-23.5490625-12.309375C137.613125 398.28124999 122.1453125 449.616875 122.1453125 512.01124999c0 198.9384375 149.236875 362.76375001 340.3753125 386.17312501v-46.8159375c0-27.3028125 23.4065625-46.8065625 50.71125-46.8065625s46.8065625 23.4065625 46.8065625 46.8065625v46.8065625c191.0878125-23.398125 338.326875-187.2346875 338.326875-386.1628125 0-58.520625-15.5990625-117.0403125-39.00656249-167.73093749l-27.30281251 11.70468749z m-276.81-60.538125V248.628125C666.846875 266.628125 756.846875 356.5878125 774.846875 468.23h-46.8065625c-14.398125-86.398125-82.7953125-154.7953125-172.7953125-172.7953125z m92.0165625 218.593125c0 75.601875-61.2046875 133.1840625-133.1840625 133.1840625-75.601875 0-136.7953125-61.2046875-136.7953125-133.1840625v-0.0703125c0-75.5165625 61.21875001-136.73625001 136.73625-136.73625001 75.601875 0 133.1840625 61.2046875 133.1840625 136.79531251zM512.0609375 422.009375c-50.44874999 0-90 39.601875-90 90s39.601875 90 90 90 90-39.601875 90-90-39.6121875-90-90.0609375-90z m-219.6225 46.7971875h-46.8065625c18-111.601875 107.9596875-201.601875 219.60187501-219.601875v43.2046875c-86.41875001 18-154.7953125 86.398125-172.79531251 176.398125z m172.3725 257.750625v43.2046875c-111.601875-18-201.601875-107.9596875-219.601875-219.601875h46.835625c14.398125 90 82.7953125 158.4065625 172.7953125 176.398125z m266.83125-176.8321875H778.4375C760.4375 661.326875 670.4075 751.326875 558.8440625 769.3578125v-43.2346875c86.398125-21.601875 154.7953125-90 172.7953125-176.398125z" p-id="2311" fill="#ffffff"></path></svg>